<svg xmlns="http://www.w3.org/2000/svg" xmlns:xlink="http://www.w3.org/1999/xlink" width="1920" zoomAndPan="magnify" viewBox="0 0 1440 809.999993" height="1080" preserveAspectRatio="xMidYMid meet" version="1.0"><defs><g/><clipPath id="0886eb819c"><path d="M 86.589844 429.425781 L 137.484375 429.425781 L 137.484375 480.320312 L 86.589844 480.320312 Z M 86.589844 429.425781 " clip-rule="nonzero"/></clipPath><clipPath id="1b76f9bbcc"><path d="M 112.039062 429.425781 C 97.984375 429.425781 86.589844 440.820312 86.589844 454.871094 C 86.589844 468.925781 97.984375 480.320312 112.039062 480.320312 C 126.09375 480.320312 137.484375 468.925781 137.484375 454.871094 C 137.484375 440.820312 126.09375 429.425781 112.039062 429.425781 Z M 112.039062 429.425781 " clip-rule="nonzero"/></clipPath><clipPath id="c34844597c"><path d="M 1119.074219 287.941406 L 1169.417969 287.941406 L 1169.417969 338.285156 L 1119.074219 338.285156 Z M 1119.074219 287.941406 " clip-rule="nonzero"/></clipPath><clipPath id="06f3bd4432"><path d="M 1144.246094 287.941406 C 1130.34375 287.941406 1119.074219 299.210938 1119.074219 313.113281 C 1119.074219 327.015625 1130.34375 338.285156 1144.246094 338.285156 C 1158.148438 338.285156 1169.417969 327.015625 1169.417969 313.113281 C 1169.417969 299.210938 1158.148438 287.941406 1144.246094 287.941406 Z M 1144.246094 287.941406 " clip-rule="nonzero"/></clipPath><clipPath id="08e0055d9f"><path d="M 1265.203125 269.011719 L 1353.410156 269.011719 L 1353.410156 357.214844 L 1265.203125 357.214844 Z M 1265.203125 269.011719 " clip-rule="nonzero"/></clipPath><clipPath id="8b7438bee8"><path d="M 1309.304688 269.011719 C 1284.949219 269.011719 1265.203125 288.753906 1265.203125 313.113281 C 1265.203125 337.46875 1284.949219 357.214844 1309.304688 357.214844 C 1333.664062 357.214844 1353.410156 337.46875 1353.410156 313.113281 C 1353.410156 288.753906 1333.664062 269.011719 1309.304688 269.011719 Z M 1309.304688 269.011719 " clip-rule="nonzero"/></clipPath><clipPath id="014846ec80"><path d="M 1272.140625 417.707031 L 1309.304688 417.707031 L 1309.304688 454.871094 L 1272.140625 454.871094 Z M 1272.140625 417.707031 " clip-rule="nonzero"/></clipPath><clipPath id="f332906c12"><path d="M 1290.722656 417.707031 C 1280.460938 417.707031 1272.140625 426.027344 1272.140625 436.289062 C 1272.140625 446.554688 1280.460938 454.871094 1290.722656 454.871094 C 1300.984375 454.871094 1309.304688 446.554688 1309.304688 436.289062 C 1309.304688 426.027344 1300.984375 417.707031 1290.722656 417.707031 Z M 1290.722656 417.707031 " clip-rule="nonzero"/></clipPath></defs><rect x="-144" width="1728" fill="#ffffff" y="-80.999999" height="971.999992" fill-opacity="1"/><rect x="-144" width="1728" fill="#ffffff" y="-80.999999" height="971.999992" fill-opacity="1"/><g clip-path="url(#0886eb819c)"><g clip-path="url(#1b76f9bbcc)"><path fill="#706fe5" d="M 86.589844 429.425781 L 137.484375 429.425781 L 137.484375 480.320312 L 86.589844 480.320312 Z M 86.589844 429.425781 " fill-opacity="1" fill-rule="nonzero"/></g></g><g fill="#000000" fill-opacity="1"><g transform="translate(188.67196, 493.678874)"><g><path d="M 43.09375 1.414062 C 62.871094 1.414062 79.648438 -10.242188 79.648438 -30.023438 C 79.648438 -69.230469 30.90625 -59.515625 30.90625 -77.882812 C 30.90625 -83.886719 35.5 -86.714844 41.148438 -86.714844 C 47.152344 -86.714844 53.160156 -83.359375 58.457031 -77.53125 L 74 -92.367188 C 66.226562 -101.371094 54.394531 -107.378906 41.324219 -107.378906 C 24.546875 -107.378906 7.417969 -97.3125 7.417969 -76.117188 C 7.417969 -40.089844 56.335938 -48.742188 56.335938 -30.199219 C 56.335938 -24.371094 51.394531 -20.488281 43.269531 -20.488281 C 33.554688 -20.488281 25.960938 -25.960938 22.074219 -34.261719 L 2.824219 -22.253906 C 9.714844 -9.007812 24.546875 1.414062 43.09375 1.414062 Z M 43.09375 1.414062 "/></g></g></g><g fill="#000000" fill-opacity="1"><g transform="translate(272.378922, 493.678874)"><g><path d="M 96.425781 -70.644531 L 84.417969 -23.664062 L 69.230469 -70.644531 L 51.570312 -70.644531 L 36.558594 -23.84375 L 24.726562 -70.644531 L -0.882812 -70.644531 L 23.488281 0 L 47.152344 0 L 60.398438 -39.914062 L 73.644531 0 L 97.488281 0 L 121.503906 -70.644531 Z M 96.425781 -70.644531 "/></g></g></g><g fill="#000000" fill-opacity="1"><g transform="translate(393.171257, 493.678874)"><g><path d="M 22.074219 -82.476562 C 28.785156 -82.476562 34.4375 -88.128906 34.4375 -94.839844 C 34.4375 -101.726562 28.785156 -107.199219 22.074219 -107.199219 C 15.363281 -107.199219 9.714844 -101.726562 9.714844 -94.839844 C 9.714844 -88.128906 15.363281 -82.476562 22.074219 -82.476562 Z M 10.773438 0 L 33.203125 0 L 33.203125 -70.644531 L 10.773438 -70.644531 Z M 10.773438 0 "/></g></g></g><g fill="#000000" fill-opacity="1"><g transform="translate(437.320505, 493.678874)"><g><path d="M 53.160156 -72.054688 C 45.035156 -72.054688 38.324219 -69.230469 33.027344 -64.460938 L 33.027344 -70.464844 L 10.417969 -70.644531 L 10.417969 42.386719 L 33.027344 42.5625 L 33.027344 -6.179688 C 38.324219 -1.414062 45.035156 1.414062 53.160156 1.414062 C 72.585938 1.414062 87.949219 -14.835938 87.949219 -35.320312 C 87.949219 -55.808594 72.585938 -72.054688 53.160156 -72.054688 Z M 48.742188 -18.542969 C 39.382812 -18.542969 31.964844 -25.960938 31.964844 -35.320312 C 31.964844 -44.683594 39.382812 -52.097656 48.742188 -52.097656 C 58.105469 -52.097656 65.519531 -44.683594 65.519531 -35.320312 C 65.519531 -25.960938 58.105469 -18.542969 48.742188 -18.542969 Z M 48.742188 -18.542969 "/></g></g></g><g fill="#000000" fill-opacity="1"><g transform="translate(530.740295, 493.678874)"><g><path d="M 82.300781 -35.5 C 82.300781 -57.574219 67.109375 -72.230469 44.328125 -72.230469 C 21.546875 -72.230469 5.476562 -57.398438 5.476562 -35.320312 C 5.476562 -13.246094 21.371094 1.414062 45.035156 1.414062 C 64.636719 1.414062 77.707031 -9.007812 81.238281 -24.371094 L 59.515625 -24.371094 C 57.574219 -18.71875 52.453125 -15.363281 44.683594 -15.363281 C 34.4375 -15.363281 29.140625 -21.546875 28.257812 -31.613281 L 82.300781 -31.613281 Z M 44.683594 -54.925781 C 52.277344 -54.925781 56.691406 -51.394531 58.988281 -45.210938 L 29.671875 -45.210938 C 31.964844 -51.214844 36.734375 -54.925781 44.683594 -54.925781 Z M 44.683594 -54.925781 "/></g></g></g><g fill="#000000" fill-opacity="1"><g transform="translate(618.332379, 493.678874)"><g/></g></g><g fill="#000000" fill-opacity="1"><g transform="translate(660.715646, 493.678874)"><g><path d="M 53.863281 1.414062 C 78.945312 1.414062 98.015625 -13.953125 98.015625 -33.910156 L 98.015625 -105.964844 L 74.703125 -105.964844 L 74.703125 -38.324219 C 74.703125 -27.550781 65.699219 -19.25 53.863281 -19.25 C 42.210938 -19.25 33.203125 -27.550781 33.203125 -38.324219 L 33.203125 -105.964844 L 9.890625 -105.964844 L 9.890625 -33.910156 C 9.890625 -13.953125 29.140625 1.414062 53.863281 1.414062 Z M 53.863281 1.414062 "/></g></g></g><g fill="#000000" fill-opacity="1"><g transform="translate(768.616396, 493.678874)"><g><path d="M 52.804688 -72.054688 C 44.503906 -72.054688 37.617188 -67.816406 33.027344 -60.929688 L 33.027344 -70.644531 L 10.417969 -70.644531 L 10.417969 0 L 33.027344 0 L 33.027344 -33.730469 C 33.027344 -45.386719 40.972656 -52.097656 52.097656 -52.097656 C 54.75 -52.097656 57.042969 -51.746094 58.632812 -51.394531 L 58.632812 -71.347656 C 57.042969 -71.878906 54.925781 -72.054688 52.804688 -72.054688 Z M 52.804688 -72.054688 "/></g></g></g><g fill="#000000" fill-opacity="1"><g transform="translate(826.893399, 493.678874)"><g/></g></g><g fill="#000000" fill-opacity="1"><g transform="translate(869.276665, 493.678874)"><g><path d="M 43.09375 1.414062 C 62.871094 1.414062 79.648438 -10.242188 79.648438 -30.023438 C 79.648438 -69.230469 30.90625 -59.515625 30.90625 -77.882812 C 30.90625 -83.886719 35.5 -86.714844 41.148438 -86.714844 C 47.152344 -86.714844 53.160156 -83.359375 58.457031 -77.53125 L 74 -92.367188 C 66.226562 -101.371094 54.394531 -107.378906 41.324219 -107.378906 C 24.546875 -107.378906 7.417969 -97.3125 7.417969 -76.117188 C 7.417969 -40.089844 56.335938 -48.742188 56.335938 -30.199219 C 56.335938 -24.371094 51.394531 -20.488281 43.269531 -20.488281 C 33.554688 -20.488281 25.960938 -25.960938 22.074219 -34.261719 L 2.824219 -22.253906 C 9.714844 -9.007812 24.546875 1.414062 43.09375 1.414062 Z M 43.09375 1.414062 "/></g></g></g><g fill="#000000" fill-opacity="1"><g transform="translate(952.983628, 493.678874)"><g><path d="M 52.980469 -53.160156 L 52.980469 -70.644531 L 36.203125 -70.644531 L 36.203125 -97.839844 L 13.773438 -97.839844 L 13.773438 -70.644531 L 1.941406 -70.644531 L 1.941406 -53.160156 L 13.773438 -53.160156 L 13.773438 -25.253906 C 13.773438 -10.242188 26.492188 1.414062 41.503906 1.414062 C 46.269531 1.414062 51.039062 0.351562 52.804688 -0.882812 L 52.804688 -18.367188 L 44.328125 -18.367188 C 39.558594 -18.367188 36.203125 -22.074219 36.203125 -27.902344 L 36.203125 -53.160156 Z M 52.980469 -53.160156 "/></g></g></g><g fill="#000000" fill-opacity="1"><g transform="translate(1009.494651, 493.678874)"><g><path d="M 57.574219 -70.644531 L 40.265625 -23.84375 L 22.605469 -70.644531 L -0.882812 -70.644531 L 28.609375 1.589844 L 12.007812 42.386719 L 35.675781 42.386719 L 80.886719 -70.644531 Z M 57.574219 -70.644531 "/></g></g></g><g fill="#000000" fill-opacity="1"><g transform="translate(1089.669652, 493.678874)"><g><path d="M 10.417969 0 L 33.027344 0 L 33.027344 -120.976562 L 10.417969 -120.976562 Z M 10.417969 0 "/></g></g></g><g fill="#000000" fill-opacity="1"><g transform="translate(1133.112439, 493.678874)"><g><path d="M 82.300781 -35.5 C 82.300781 -57.574219 67.109375 -72.230469 44.328125 -72.230469 C 21.546875 -72.230469 5.476562 -57.398438 5.476562 -35.320312 C 5.476562 -13.246094 21.371094 1.414062 45.035156 1.414062 C 64.636719 1.414062 77.707031 -9.007812 81.238281 -24.371094 L 59.515625 -24.371094 C 57.574219 -18.71875 52.453125 -15.363281 44.683594 -15.363281 C 34.4375 -15.363281 29.140625 -21.546875 28.257812 -31.613281 L 82.300781 -31.613281 Z M 44.683594 -54.925781 C 52.277344 -54.925781 56.691406 -51.394531 58.988281 -45.210938 L 29.671875 -45.210938 C 31.964844 -51.214844 36.734375 -54.925781 44.683594 -54.925781 Z M 44.683594 -54.925781 "/></g></g></g><g clip-path="url(#c34844597c)"><g clip-path="url(#06f3bd4432)"><path fill="#706fe5" d="M 1119.074219 287.941406 L 1169.417969 287.941406 L 1169.417969 338.285156 L 1119.074219 338.285156 Z M 1119.074219 287.941406 " fill-opacity="1" fill-rule="nonzero"/></g></g><g clip-path="url(#08e0055d9f)"><g clip-path="url(#8b7438bee8)"><path fill="#706fe5" d="M 1265.203125 269.011719 L 1353.410156 269.011719 L 1353.410156 357.214844 L 1265.203125 357.214844 Z M 1265.203125 269.011719 " fill-opacity="1" fill-rule="nonzero"/></g></g><g clip-path="url(#014846ec80)"><g clip-path="url(#f332906c12)"><path fill="#706fe5" d="M 1272.140625 417.707031 L 1309.304688 417.707031 L 1309.304688 454.871094 L 1272.140625 454.871094 Z M 1272.140625 417.707031 " fill-opacity="1" fill-rule="nonzero"/></g></g></svg>